HIERARCHY
ROOT Hips
{
	OFFSET 0.000000 0.000000 0.000000
	CHANNELS 6 Xposition Yposition Zposition Zrotation Yrotation Xrotation 
	JOINT LeftUpLeg_virtual
	{
		OFFSET 0.000000 0.000000 0.000000
		CHANNELS 3 Zrotation Yrotation Xrotation
		JOINT LeftUpLeg
		{
			OFFSET 10.205400 -3.823500 0.155100
			CHANNELS 3 Zrotation Yrotation Xrotation
			JOINT LeftLeg
			{
				OFFSET 0.708757 -12.982077 0.567790
				CHANNELS 3 Zrotation Yrotation Xrotation
				JOINT LeftFoot
				{
					OFFSET -0.708756 -10.717838 -2.184338
					CHANNELS 3 Zrotation Yrotation Xrotation
					JOINT LeftToeBase
					{
						OFFSET 0.108149 -7.191104 7.560241
						CHANNELS 3 Zrotation Yrotation Xrotation
						End Site
						{
							OFFSET 0.000000 0.000000 0.000000
						}
					}
				}
			}
		}
	}
	JOINT RightUpLeg_virtual
	{
		OFFSET 0.000000 0.000000 0.000000
		CHANNELS 3 Zrotation Yrotation Xrotation
		JOINT RightUpLeg
		{
			OFFSET -10.205400 -3.823500 0.005500
			CHANNELS 3 Zrotation Yrotation Xrotation
			JOINT RightLeg
			{
				OFFSET -0.708756 -12.982134 0.610632
				CHANNELS 3 Zrotation Yrotation Xrotation
				JOINT RightFoot
				{
					OFFSET 0.708754 -10.717769 -1.945823
					CHANNELS 3 Zrotation Yrotation Xrotation
					JOINT RightToeBase
					{
						OFFSET -0.108140 -7.191069 7.372968
						CHANNELS 3 Zrotation Yrotation Xrotation
						End Site
						{
							OFFSET 0.000000 0.000000 0.000000
						}
					}
				}
			}
		}
	}
	JOINT Spine_virtual
	{
		OFFSET 0.000000 0.000000 0.000000
		CHANNELS 3 Zrotation Yrotation Xrotation
		JOINT Spine
		{
			OFFSET 0.000000 6.876099 0.125700
			CHANNELS 3 Zrotation Yrotation Xrotation
			JOINT Spine1
			{
				OFFSET 0.000000 8.022060 0.146608
				CHANNELS 3 Zrotation Yrotation Xrotation
				JOINT Spine2
				{
					OFFSET 0.000000 9.168068 0.167552
					CHANNELS 3 Zrotation Yrotation Xrotation
					JOINT Neck_virtual
					{
						OFFSET 0.000000 0.000000 0.000000
						CHANNELS 3 Zrotation Yrotation Xrotation
						JOINT Neck
						{
							OFFSET 0.000000 10.314075 0.188496
							CHANNELS 3 Zrotation Yrotation Xrotation
							JOINT Head
							{
								OFFSET 0.000000 7.643700 -2.377400
								CHANNELS 3 Zrotation Yrotation Xrotation
								End Site
								{
									OFFSET 0.000000 0.000000 0.000000
								}
							}
						}
					}
					JOINT LeftShoulder_virtual
					{
						OFFSET 0.000000 0.000000 0.000000
						CHANNELS 3 Zrotation Yrotation Xrotation
						JOINT LeftShoulder
						{
							OFFSET 4.392200 8.824978 0.174984
							CHANNELS 3 Zrotation Yrotation Xrotation
							JOINT LeftArm
							{
								OFFSET 8.771219 -2.981674 -0.026999
								CHANNELS 3 Zrotation Yrotation Xrotation
								JOINT LeftForeArm
								{
									OFFSET 8.512804 0.000000 -0.000000
									CHANNELS 3 Zrotation Yrotation Xrotation
									JOINT LeftHand
									{
										OFFSET 18.484802 0.000000 -0.000000
										CHANNELS 3 Zrotation Yrotation Xrotation
										End Site
										{
											OFFSET 0.000000 0.000000 0.000000
										}
									}
								}
							}
						}
					}
					JOINT RightShoulder_virtual
					{
						OFFSET 0.000000 0.000000 0.000000
						CHANNELS 3 Zrotation Yrotation Xrotation
						JOINT RightShoulder
						{
							OFFSET -4.392200 8.824993 0.141379
							CHANNELS 3 Zrotation Yrotation Xrotation
							JOINT RightArm
							{
								OFFSET -8.771282 -2.981682 -0.094208
								CHANNELS 3 Zrotation Yrotation Xrotation
								JOINT RightForeArm
								{
									OFFSET -8.494598 0.000000 0.000000
									CHANNELS 3 Zrotation Yrotation Xrotation
									JOINT RightHand
									{
										OFFSET -18.483803 0.000000 0.000001
										CHANNELS 3 Zrotation Yrotation Xrotation
										End Site
										{
											OFFSET 0.000000 0.000000 0.000000
										}
									}
								}
							}
						}
					}
				}
			}
		}
	}
}
MOTION
Frames: 11
Frame Time: 0.033333
-1.596182 36.722954 32.794521 179.959201 1.593572 179.850984 -3.393264 -1.860258 9.751051 -0.848137 -2.186446 -17.263173 13.602463 13.770981 17.748414 -4.215978 2.969903 10.117337 0.000000 0.000000 0.000000 1.556010 -0.975056 7.547601 -2.416570 2.267548 -7.074251 -7.170409 -0.030565 10.765189 3.240116 6.083357 13.051813 0.000000 0.000000 0.000000 0.993785 0.792947 -1.838348 -3.396214 3.302940 -4.488243 0.366672 -2.827483 4.328863 -0.016651 -0.045750 0.009064 -0.210828 -0.803333 6.098742 -0.202726 -5.074714 5.819298 0.000000 0.000000 0.000000 1.263302 0.136382 3.224591 2.512729 -2.548954 -3.230209 -11.076381 23.379775 -34.817248 0.122998 -36.913006 -4.228369 0.000000 0.000000 0.000000 -2.244111 0.915534 2.804076 6.449704 -11.428047 -6.335059 16.657378 -27.874055 -35.070163 0.299053 36.910499 -4.699893 0.000000 0.000000 0.000000 
-1.595123 36.730103 32.795929 -179.973955 1.481784 179.871229 -3.342788 -1.824519 9.612119 -1.015117 -2.348401 -17.415347 13.337004 14.403655 17.601519 -4.527872 2.688749 9.781702 0.000000 0.000000 0.000000 1.648748 -1.051575 7.519844 -2.418183 2.235806 -7.091109 -7.254070 -0.203584 10.494159 3.072241 5.910617 13.334186 0.000000 0.000000 0.000000 1.027473 0.777912 -1.860532 -3.376441 3.299048 -4.499242 0.381933 -2.837911 4.316657 0.009680 -0.050356 -0.017335 -0.224983 -0.703031 6.140603 -0.221053 -5.090210 5.804279 0.000000 0.000000 0.000000 1.193531 0.097987 3.293833 2.520438 -2.634464 -3.165322 -11.137989 23.448147 -34.857215 0.123883 -36.926885 -4.208516 0.000000 0.000000 0.000000 -2.281966 0.852500 2.786857 6.451821 -11.467155 -6.310235 16.617847 -27.914954 -35.157190 0.334275 36.922234 -4.644576 0.000000 0.000000 0.000000 
-1.591362 36.731468 32.796135 179.944394 1.594622 179.876201 -3.434403 -1.781617 9.616155 -1.007716 -2.377843 -17.398565 13.361834 14.409771 17.576848 -4.529944 2.693064 9.770100 0.000000 0.000000 0.000000 1.582004 -0.986891 7.503496 -2.385296 2.214327 -7.066793 -7.225291 -0.191587 10.526010 3.059762 5.938558 13.342687 0.000000 0.000000 0.000000 0.995044 0.832607 -1.861064 -3.406945 3.349646 -4.497894 0.357107 -2.802799 4.336345 -0.038786 -0.016567 0.015547 -0.166314 -0.937883 6.119966 -0.184617 -5.051906 5.830200 0.000000 0.000000 0.000000 1.272705 0.118174 3.262886 2.523089 -2.606355 -3.401134 -11.190973 23.428867 -34.954108 -0.053968 -36.963065 -4.046683 0.000000 0.000000 0.000000 -2.197296 0.829745 2.789650 6.431157 -11.491687 -6.229754 16.616520 -27.962072 -35.068015 0.215172 36.935088 -4.763265 0.000000 0.000000 0.000000 
-1.588031 36.730778 32.796528 -179.972411 1.493529 179.852254 -3.357290 -1.803834 9.621957 -0.988284 -2.337744 -17.375067 13.321528 14.357469 17.591185 -4.521970 2.708421 9.806906 0.000000 0.000000 0.000000 1.663599 -1.081423 7.510117 -2.416924 2.195489 -7.055717 -7.247236 -0.145972 10.479764 3.069534 5.948663 13.277602 0.000000 0.000000 0.000000 1.033524 0.759426 -1.850202 -3.382588 3.327548 -4.518595 0.387913 -2.825246 4.313260 0.000286 -0.043917 -0.024905 -0.221945 -0.803368 6.135567 -0.214119 -5.073060 5.843582 0.000000 0.000000 0.000000 1.215863 0.086147 3.285279 2.535491 -2.641061 -3.193836 -11.275848 23.460631 -34.780867 0.109254 -36.955316 -4.217300 0.000000 0.000000 0.000000 -2.256573 0.879629 2.755959 6.418136 -11.416163 -6.097042 16.656989 -27.954120 -35.073732 0.131267 36.980560 -4.894206 0.000000 0.000000 0.000000 
-1.586150 36.733604 32.792545 179.976113 1.539970 179.885490 -3.370410 -1.807435 9.611191 -0.949220 -2.420221 -17.387356 13.368765 14.605243 17.594258 -4.579663 2.669483 9.800870 0.000000 0.000000 0.000000 1.630576 -1.054594 7.495253 -2.415552 2.073851 -7.052784 -7.240557 -0.035975 10.473036 3.050728 5.956048 13.270152 0.000000 0.000000 0.000000 1.012675 0.790720 -1.878818 -3.376316 3.326763 -4.533426 0.296586 -2.840151 4.316278 0.005526 -0.048757 -0.018940 -0.197799 -0.882544 6.126489 -0.191592 -5.177252 5.876121 0.000000 0.000000 0.000000 1.272504 0.114015 3.248522 2.587263 -2.626957 -3.299316 -11.377027 23.515691 -34.810882 0.119511 -37.025533 -4.265321 0.000000 0.000000 0.000000 -2.216968 0.890851 2.793552 6.387091 -11.368081 -6.200269 16.565169 -27.998725 -34.950768 0.220145 37.033839 -4.795205 0.000000 0.000000 0.000000 
-1.578281 36.734108 32.789326 -179.988817 1.563190 179.823650 -3.365524 -1.769987 9.649900 -0.946842 -2.394197 -17.360159 13.328399 14.448717 17.581773 -4.554756 2.696844 9.771246 0.000000 0.000000 0.000000 1.650652 -1.051303 7.532562 -2.384042 2.209935 -7.001422 -7.230840 -0.226765 10.463267 3.026393 5.986470 13.330418 0.000000 0.000000 0.000000 1.029542 0.812598 -1.826600 -3.374274 3.368124 -4.536471 0.399062 -2.825317 4.318435 0.000949 -0.024913 0.008949 -0.196135 -0.759201 6.092553 -0.222290 -5.059508 5.946197 0.000000 0.000000 0.000000 1.231423 0.082413 3.254875 2.588698 -2.673644 -3.256786 -11.482388 23.572757 -34.851426 0.135186 -37.024058 -4.294110 0.000000 0.000000 0.000000 -2.247114 0.868807 2.738823 6.315233 -11.368079 -6.182410 16.619626 -28.038925 -34.985339 0.212750 37.100788 -4.818041 0.000000 0.000000 0.000000 
-1.575780 36.734684 32.787560 179.985238 1.586421 179.903180 -3.360855 -1.819157 9.607168 -0.941100 -2.410891 -17.404413 13.298315 14.397760 17.564573 -4.519453 2.729969 9.708320 0.000000 0.000000 0.000000 1.619713 -1.001349 7.492329 -2.390674 2.201418 -7.019224 -7.231830 -0.188871 10.396450 2.989576 5.963605 13.348613 0.000000 0.000000 0.000000 1.030755 0.790844 -1.882080 -3.422235 3.388333 -4.577273 0.371477 -2.825437 4.294460 0.040072 -0.024882 -0.013849 -0.230705 -0.719644 6.098932 -0.254598 -5.065905 6.010172 0.000000 0.000000 0.000000 1.215826 0.082467 3.240999 2.646003 -2.653183 -3.209005 -11.564193 23.668468 -34.832332 0.123459 -37.068120 -4.296132 0.000000 0.000000 0.000000 -2.263701 0.845200 2.728664 6.272412 -11.331661 -6.236634 16.707396 -28.028124 -35.071310 0.257509 37.117147 -4.779713 0.000000 0.000000 0.000000 
-1.570128 36.733135 32.787457 179.989036 1.575314 179.818595 -3.359381 -1.789532 9.663925 -0.935251 -2.406353 -17.343338 13.309697 14.536167 17.600872 -4.571747 2.695038 9.769328 0.000000 0.000000 0.000000 1.620368 -1.085309 7.513450 -2.377247 2.247586 -6.977496 -7.237216 -0.214242 10.456512 2.982847 6.014603 13.278155 0.000000 0.000000 0.000000 1.025704 0.782314 -1.802119 -3.409903 3.421635 -4.559700 0.381563 -2.829294 4.295568 -0.012217 -0.020755 -0.017641 -0.178015 -0.839688 6.035457 -0.206149 -5.012297 6.065865 0.000000 0.000000 0.000000 1.264519 0.049285 3.157850 2.707559 -2.672397 -3.168167 -11.630411 23.762464 -34.923392 0.086824 -37.112092 -4.248653 0.000000 0.000000 0.000000 -2.228401 0.850618 2.601175 6.264063 -11.295931 -6.154200 16.630814 -28.139259 -34.882613 0.148412 37.128505 -4.927995 0.000000 0.000000 0.000000 
-1.566838 36.730049 32.788502 179.965868 1.578536 179.805836 -3.400242 -1.802092 9.672177 -0.938757 -2.385571 -17.315453 13.298378 14.435552 17.618341 -4.542271 2.722490 9.758240 0.000000 0.000000 0.000000 1.607366 -1.075968 7.486956 -2.380699 2.232747 -6.973242 -7.220881 -0.183473 10.485994 2.956076 6.039192 13.167759 0.000000 0.000000 0.000000 1.022116 0.749949 -1.747699 -3.436846 3.426383 -4.614240 0.372790 -2.855411 4.296335 -0.017456 -0.043287 -0.051899 -0.156943 -0.844558 5.961266 -0.179484 -4.969688 6.063881 0.000000 0.000000 0.000000 1.282168 0.065933 3.121138 2.750955 -2.609443 -3.203375 -11.641864 23.844465 -34.897363 0.053143 -37.138068 -4.232821 0.000000 0.000000 0.000000 -2.205542 0.827865 2.661831 6.181973 -11.268304 -6.219334 16.750615 -28.144250 -35.039881 0.203577 37.219941 -4.926063 0.000000 0.000000 0.000000 
-1.565794 36.729000 32.783760 -179.974105 1.636243 179.795318 -3.312058 -1.769678 9.668602 -0.924366 -2.382682 -17.297176 13.287259 14.615778 17.642787 -4.591325 2.681764 9.733272 0.000000 0.000000 0.000000 1.665873 -1.042566 7.476359 -2.392007 2.270469 -6.952054 -7.253259 -0.218176 10.506974 2.948998 6.052065 13.154908 0.000000 0.000000 0.000000 1.075137 0.766854 -1.705636 -3.418131 3.477920 -4.641881 0.414765 -2.847281 4.231416 0.009654 -0.014104 -0.006133 -0.195005 -0.758688 5.994570 -0.205679 -4.989934 6.215832 0.000000 0.000000 0.000000 1.250615 0.040582 3.127892 2.744773 -2.615029 -3.232545 -11.563756 23.838832 -34.854209 0.034780 -37.119974 -4.180264 0.000000 0.000000 0.000000 -2.255024 0.818103 2.597602 6.122570 -11.237724 -6.176795 16.841617 -28.185833 -35.099277 0.201902 37.363775 -4.984052 0.000000 0.000000 0.000000 
-1.565340 36.727276 32.774429 179.965840 1.528484 179.823909 -3.396061 -1.851020 9.646827 -0.919887 -2.368761 -17.282170 13.286179 14.494293 17.662770 -4.574647 2.700367 9.745835 0.000000 0.000000 0.000000 1.630808 -1.142421 7.476320 -2.383298 2.236424 -6.946751 -7.237753 -0.175178 10.509148 2.939635 6.091426 13.140957 0.000000 0.000000 0.000000 1.059832 0.707188 -1.695208 -3.462932 3.469008 -4.691746 0.392468 -2.876746 4.240288 -0.025652 -0.052549 0.049016 -0.155850 -0.976507 5.893326 -0.145641 -4.925863 6.290694 0.000000 0.000000 0.000000 1.312247 0.066803 3.005962 2.793807 -2.587049 -3.280195 -11.541481 23.938614 -34.795207 -0.018739 -37.182734 -4.140808 0.000000 0.000000 0.000000 -2.199638 0.791285 2.515499 6.083066 -11.163779 -6.232497 16.910411 -28.197335 -35.145189 0.172169 37.469031 -5.033715 0.000000 0.000000 0.000000 
